<svg width="59" height="70" viewBox="0 0 59 70" fill="none" xmlns="http://www.w3.org/2000/svg">
<path d="M58.7298 10.6325C58.7298 11.2783 58.7298 11.7213 58.7298 12.1643C58.7298 21.4298 58.7298 30.6911 58.7298 39.9565C58.6795 54.3474 48.159 66.5771 33.8923 68.8293C18.1014 71.3547 2.76757 60.218 0.432173 44.4775C0.160185 42.4743 0.0310407 40.4544 0.0457108 38.433C0.00415576 29.7099 0.0457106 20.9826 0 12.2595C0 10.9637 0.344907 10.6035 1.6622 10.6035C20.1681 10.6477 38.6753 10.6587 57.1839 10.6366L58.7298 10.6325ZM5.38969 16.0767C5.38969 23.9428 5.35645 31.6185 5.41463 39.3024C5.4279 41.1417 5.60591 42.9761 5.94653 44.7838C6.54319 47.9301 7.84427 50.9019 9.75298 53.478C15.205 50.0831 20.5573 46.7462 25.9096 43.4176C34.5891 38.0328 43.2754 32.6493 51.9688 27.2673C52.937 26.6711 53.4398 26.0501 53.3816 24.8246C53.2611 22.4027 53.3484 19.9725 53.3401 17.5464C53.3401 17.0703 53.2778 16.5942 53.2445 16.085L5.38969 16.0767ZM13.1189 57.2703C18.9159 63.0663 28.7561 65.6787 37.8899 62.2383C47.4476 58.653 52.2971 49.9382 52.8248 44.2332L31.3782 57.5187L27.6923 53.8464C28.0081 53.6394 28.3406 53.4324 28.6813 53.2047C36.5324 48.3443 44.3808 43.4811 52.2264 38.6152C52.642 38.3668 53.232 38.0066 53.2528 37.6712C53.3567 35.9655 53.3027 34.2515 53.3027 32.2891L13.1189 57.2703Z" fill="#17355C"/>
<path d="M18.6456 4.1284C18.5667 6.27711 16.7901 7.9755 14.632 7.96543C12.4738 7.95537 10.7133 6.24049 10.6546 4.09114C10.6149 2.63848 11.3725 1.27958 12.6313 0.545503C13.8901 -0.188577 15.4504 -0.181302 16.7023 0.564485C17.9541 1.31027 18.6989 2.67617 18.6456 4.1284Z" fill="#17355C"/>
<path d="M44.1149 8.00763C43.0414 8.01888 42.0087 7.59812 41.2508 6.84063C40.4928 6.08314 40.0736 5.053 40.0883 3.98349C40.1581 1.8169 41.9412 0.0965576 44.117 0.0965576C46.2928 0.0965576 48.0759 1.8169 48.1458 3.98349C48.1581 5.05304 47.7377 6.08249 46.9793 6.8396C46.2209 7.59672 45.1885 8.01772 44.1149 8.00763Z" fill="#17355C"/>
<path d="M34.6694 8.02423H23.9482L29.3795 0.0256348L34.6694 8.02423Z" fill="#17355C"/>
<path d="M12.0926 21.0985H18.3259C18.3259 24.0876 18.2303 27.0022 18.3841 29.9044C18.5034 30.8968 18.9406 31.8245 19.6307 32.5499C20.3663 33.3489 21.509 33.3572 22.5396 32.8521C23.6085 32.39 24.2867 31.3256 24.2517 30.1652C24.2517 27.201 24.2517 24.2367 24.2517 21.1399H30.5389C30.5389 21.9679 30.5389 22.7959 30.5389 23.6239C30.4725 26.4516 30.6636 29.3165 30.2481 32.0945C29.604 36.4333 25.3446 39.6253 21.0187 39.4224C16.3728 39.1989 12.4168 35.6632 12.1176 31.1589C11.9264 27.8509 12.0926 24.5223 12.0926 21.0985Z" fill="#17355C"/>
</svg>
